<svg width="32" height="32" viewBox="0 0 32 32" fill="none" xmlns="http://www.w3.org/2000/svg">
<rect width="32" height="32" rx="6" fill="#0D9488"/>
<path d="M10 9.25H22C22.4139 9.25 22.75 9.58606 22.75 10V13.75C22.75 14.1639 22.4139 14.5 22 14.5H10C9.58606 14.5 9.25 14.1639 9.25 13.75V10C9.25 9.58606 9.58606 9.25 10 9.25V9.25" stroke="white" stroke-width="1.5" stroke-linecap="round" stroke-linejoin="round"/>
<path d="M10 17.5H15.25C15.6639 17.5 16 17.8361 16 18.25V22C16 22.4139 15.6639 22.75 15.25 22.75H10C9.58606 22.75 9.25 22.4139 9.25 22V18.25C9.25 17.8361 9.58606 17.5 10 17.5V17.5" stroke="white" stroke-width="1.5" stroke-linecap="round" stroke-linejoin="round"/>
<path d="M19.75 17.5H22C22.4139 17.5 22.75 17.8361 22.75 18.25V22C22.75 22.4139 22.4139 22.75 22 22.75H19.75C19.3361 22.75 19 22.4139 19 22V18.25C19 17.8361 19.3361 17.5 19.75 17.5V17.5" stroke="white" stroke-width="1.5" stroke-linecap="round" stroke-linejoin="round"/>
</svg>
