<svg width="19" height="19" viewBox="0 0 19 19" fill="none" xmlns="http://www.w3.org/2000/svg"><path d="M1.833.917h4.584c.506 0 .916.41.916.916V8.25c0 .506-.41.917-.916.917H1.833a.917.917 0 0 1-.916-.917V1.833c0-.506.41-.916.916-.916m10.084 0H16.5c.506 0 .917.41.917.916v2.75a.92.92 0 0 1-.917.917h-4.583A.917.917 0 0 1 11 4.583v-2.75c0-.506.41-.916.917-.916m0 8.25H16.5c.506 0 .917.41.917.916V16.5a.92.92 0 0 1-.917.917h-4.583A.917.917 0 0 1 11 16.5v-6.417c0-.506.41-.916.917-.916M1.833 12.833h4.584c.506 0 .916.411.916.917v2.75c0 .506-.41.917-.916.917H1.833a.917.917 0 0 1-.916-.917v-2.75c0-.506.41-.917.916-.917" stroke-width="1.833" stroke-linecap="round" stroke-linejoin="round"/></svg>