<svg width="20" height="20" viewBox="0 0 20 20" fill="none" xmlns="http://www.w3.org/2000/svg"><path d="M17.5 6.667c0-.595-.318-1.145-.833-1.442l-5.834-3.333a1.67 1.67 0 0 0-1.666 0L3.333 5.225A1.67 1.67 0 0 0 2.5 6.667v6.666c0 .595.318 1.145.833 1.442l5.834 3.333a1.67 1.67 0 0 0 1.666 0l5.834-3.333c.515-.297.832-.847.833-1.442z" stroke="currentColor" stroke-width="1.667" stroke-linecap="round" stroke-linejoin="round"/><path d="M2.75 5.833 10 10l7.25-4.167M10 18.333V10" stroke="currentColor" stroke-width="1.667" stroke-linecap="round" stroke-linejoin="round"/></svg>